<?xml version="1.0" encoding="utf-8"?>
<svg width="743" height="193.06800842285156">
	<defs id="SvgjsDefs1182"></defs>
	<g id="SvgjsG1183" featurekey="root" fill="#000000" transform="matrix(1,0,0,1,NaN,NaN)"></g>
	<g id="SvgjsG1184" featurekey="container1" fill="#ffffff" transform="matrix(2.7217732306329,0,0,2.7217732306329,20.00002012213147,20.01135999103932)">
		<title xmlns="http://www.w3.org/2000/svg">Untitled-1</title>
		<path xmlns="http://www.w3.org/2000/svg" d="M23.11,55.78L1.69,43.41A3.39,3.39,0,0,1,0,40.48V15.75a3.39,3.39,0,0,1,1.69-2.94L23.11,0.45a3.39,3.39,0,0,1,3.39,0L47.91,12.82a3.39,3.39,0,0,1,1.69,2.94V40.48a3.39,3.39,0,0,1-1.69,2.94L26.5,55.78A3.39,3.39,0,0,1,23.11,55.78Z"></path>
	</g>
	<g id="SvgjsG1185" featurekey="symbol1" fill="#000000" transform="matrix(0.700006996224709,0,0,0.700006996224709,53,60.424054140174285)">
		<g>
			<g>
				<path d="M10.374,12.221h1.996v2.378l-0.517,4.376h-0.95l-0.529-4.376V12.221z"></path>
				<circle cx="11.372" cy="20.687" r="0.953"></circle>
			</g>
			<g>
				<path d="M86.691,34.543c0.494-0.319,1.104-0.478,1.824-0.478c0.944,0,1.73,0.224,2.358,0.677c0.625,0.452,0.938,1.123,0.938,2.012    c0,0.543-0.138,1.003-0.408,1.375c-0.155,0.228-0.465,0.515-0.914,0.867l-0.446,0.346c-0.239,0.187-0.399,0.409-0.479,0.659    c-0.051,0.159-0.078,0.409-0.084,0.745h-1.699c0.023-0.71,0.091-1.198,0.199-1.469c0.106-0.271,0.389-0.582,0.838-0.934    l0.459-0.356c0.148-0.116,0.272-0.238,0.365-0.373c0.164-0.229,0.25-0.486,0.25-0.761c0-0.315-0.097-0.608-0.281-0.869    c-0.186-0.262-0.524-0.393-1.018-0.393c-0.486,0-0.83,0.159-1.031,0.484c-0.203,0.32-0.304,0.655-0.304,1.005h-1.813    C85.492,35.888,85.909,35.044,86.691,34.543z"></path>
				<circle cx="88.628" cy="42.543" r="0.937"></circle>
			</g>
			<g>
				<path fill="none" d="M31.1,44.419c0.026-0.167-0.035-0.23-0.057-0.25c-0.061-0.065-0.181-0.116-0.333-0.142l-1.29,0.01    l-0.028-0.002c-0.029-0.006-0.057-0.008-0.092-0.008c-0.405,0-0.914,0.267-0.94,0.441c-0.01,0.057,0.063,0.177,0.242,0.309    c0.216,0.161,0.474,0.254,0.633,0.279l2.254,0.204c0.006-0.014,0.014-0.029,0.02-0.043c0.006-0.014,0.012-0.024,0.021-0.037    C31.297,45.021,31.044,44.777,31.1,44.419z"></path>
				<path fill="none" d="M25.128,41.349c-0.578-0.419-1.63-1.04-2.002-1.076c-0.051,0.065-0.108,0.13-0.161,0.193    c-0.071,0.082-0.171,0.201-0.211,0.272l0.004,0.004l3.327,2.677c0.075,0.055,0.183,0.087,0.293,0.087    c0.167,0,0.319-0.077,0.419-0.211c0.167-0.23,0.118-0.556-0.112-0.722L25.128,41.349z"></path>
				<path fill="none" d="M22.333,19.109c-0.22,0.592-0.409,1.03-0.793,1.561l1.143,4.022l-4.482-1.129    c-0.102,0.063-0.047,0.024-0.152,0.09c-0.926,0.547-1.485,0.7-2.617,1.015c-0.997,0.276-2.057,0.441-3.166,0.506    c-0.019,0.002-0.039,0.002-0.061,0.004c-1.123,1.963-1.992,4.061-2.454,6.026c-0.869,3.697-1.207,6.448-1.207,9.804    c0,0.649,1.729,2.291,5.141,4.881c0.171,0.13,0.312,0.238,0.419,0.324c0.059,0.035,0.309-0.014,0.441-0.039    c0.36-0.071,0.96-0.191,1.221,0.36l1.381,2.93c0.657,1.394,1.377,2.112,2.468,3.205c0.409,0.407,0.468,0.358,0.682,0.156    c0.197-0.188,0.423-0.362,0.72-0.362c0.274,0,0.614,0.148,1.048,0.586c0.812,0.811,0.464,3.461,0.364,3.949    c-0.228,1.087-0.792,2.002-1.286,2.812c-0.838,1.356-1.5,2.432-0.621,3.94c0.444,0.763,0.859,1.576,1.3,2.44    c1.003,1.975,2.037,4.009,3.442,5.416c0.427,0.426,0.893,0.836,1.345,1.232c1.587,1.396,3.227,2.84,3.298,5.143    c0.021,0.677-0.02,1.488-0.067,2.35c-0.104,1.939-0.224,4.136,0.372,5.471c1.353,3.047,2.317,4.721,4.808,7.206    c0.14,0.144,0.346,0.304,0.513,0.259c0.531-0.137,1.003-1.74,1.312-2.804c0.216-0.729,0.399-1.354,0.613-1.707    c1.141-1.848,2.688-2.22,4.181-2.582c0.934-0.226,1.9-0.46,2.779-1.06c0.841-0.57,1.311-1.412,1.807-2.301    c0.646-1.15,1.312-2.338,2.82-2.912c2.323-0.885,4.821-2.143,5.77-4.797c0.138-0.385,0.063-0.879-0.012-1.404    c-0.082-0.571-0.169-1.161,0.01-1.696c0.254-0.759,1.068-1.575,1.789-2.295c0.299-0.295,0.58-0.578,0.771-0.81    c0.812-0.967,1.919-2.293,1.687-3.243c-0.106-0.45-0.521-0.832-1.242-1.138l-9.268-3.946c-1.128-0.479-1.763-1.459-2.321-2.319    c-0.507-0.783-0.944-1.457-1.632-1.684c-0.531-0.174-1.146-0.329-1.803-0.492c-1.919-0.479-4.098-1.021-5.241-2.385    c-1.676-2.002-5.875-3.811-9.173-3.954c-1.316-0.059-3.127,0.114-4.279,1.266c-0.887,0.89-1.286,1.005-1.861,0.547    c-0.195-0.161-0.403-0.321-0.899-0.321c-1.857,0-2.069-0.055-2.376-1.696c-0.031-0.161-0.065-0.34-0.102-0.537    c-0.069-0.336-0.11-0.729-0.154-1.146c-0.112-1.064-0.252-2.391-0.873-2.706c-0.333-0.167-0.844-0.053-1.522,0.346l-0.812,0.474    l0.309-0.885c0.014-0.039,0.037-0.1,0.071-0.185c1.115-2.914,0.781-3.302,0.763-3.318c0,0-0.006,0-0.019,0    c-0.03,0-0.104,0.004-0.244,0.065c-0.387,0.167-0.718,0.336-1.015,0.484c-1.266,0.631-2.03,1.011-3.485-0.443    c-0.515-0.515-0.197-2.991,0.218-4.507c0.33-1.206,0.942-2.702,1.961-2.962c0.384-0.098,0.775-0.019,1.166,0.242    c0.484-1.752,1.945-2.312,3.135-2.228c1.64,0.11,3.386,1.375,3.386,3.518c0,0.171-0.021,0.362-0.043,0.566    c-0.033,0.299-0.089,0.797,0.019,0.916c0.018,0.022,0.073,0.026,0.105,0.026c0.216,0,0.397,0.012,0.547,0.024    c0.13,0.008,0.289,0.02,0.336,0.004c-0.029-0.004,0.026-0.069,0.063-0.376c0.032-0.289,0.044-0.708,0.057-1.153    c0.035-1.371,0.08-3.083,0.792-3.794c0.519-0.525,1.302-0.987,2.063-1.432c0.757-0.448,1.542-0.91,1.894-1.353    c0.232-0.291,0.45-0.592,0.666-0.885c0.818-1.111,1.664-2.264,3.08-2.828c0.684-0.275,1.072-0.73,1.447-1.168    c0.537-0.626,1.09-1.278,2.372-1.278c0.218,0,0.433,0.004,0.647,0.008c1.044,0.016,2.037,0.033,2.975-0.36l-3.312-3.312h0.832    c0.615,0,1.304-0.154,2.033-0.315c1.367-0.303,2.777-0.614,3.886,0.061l0.373,0.23l-0.307,0.307    c-0.181,0.183-0.297,0.472-0.421,0.777c-0.085,0.204-0.169,0.413-0.281,0.606c0.891,0.484,1.577,0.228,1.939-0.206    c0.441-0.531,0.5-1.453-0.24-2.193l-3.261-3.261c-0.148-0.148-0.48-0.104-0.832-0.061c-0.48,0.063-1.076,0.138-1.503-0.289    c-0.663-0.661-1.298-0.96-1.937-0.919c-1.172,0.08-2.269,1.314-3.184,2.515c-0.795,1.048-1.361,1.463-1.892,1.398    c-0.602-0.076-0.885-0.73-1.186-1.424c-0.25-0.586-0.539-1.25-1.007-1.55l-0.36-0.232l0.303-0.305    c2.279-2.279,4.01-2.413,6.883-2.641L35.87,11.8c0.692-0.057,1.557,0.25,2.319,0.519c0.495,0.179,1.06,0.38,1.282,0.348    c0.513-0.073,1.312-0.737,1.951-1.272c0.191-0.156,0.373-0.309,0.543-0.441c-0.578-0.706-1.119-1.038-1.746-1.054l-0.497,0.043    l-0.091-0.684c0.193-0.037,0.38-0.051,0.555-0.047l5.367-0.464V9.12c0,0.281-0.008,0.572-0.017,0.865    c-0.036,1.331-0.073,2.706,0.612,3.414c0.34,0.348,0.845,0.517,1.545,0.517c0.954,0,2.314-0.958,3.514-1.805    c0.57-0.403,1.116-0.785,1.623-1.08c-0.195-0.179-0.402-0.362-0.62-0.551c-1.006-0.879-2.131-1.864-2.482-3.025    c-0.659-0.067-1.322-0.118-1.99-0.159c-0.083-0.002-0.169-0.008-0.25-0.012c-0.222-0.01-0.445-0.019-0.669-0.026    c-0.157-0.002-0.313-0.012-0.473-0.019c-0.378-0.006-0.757-0.012-1.139-0.012c-0.552,0-1.103,0.012-1.65,0.033    c-0.145,0.006-0.285,0.01-0.425,0.018c-0.486,0.019-0.969,0.051-1.453,0.087c-0.238,0.021-0.476,0.041-0.714,0.065    c-0.232,0.02-0.464,0.047-0.696,0.069c-6.675,0.743-12.901,2.983-18.357,6.348c0.525,0.957,0.828,1.99,0.828,3.081    C22.742,17.684,22.591,18.41,22.333,19.109z"></path>
				<path fill="none" d="M16.962,16.473l-0.017-0.018c1.007-0.806,2.039-1.552,3.095-2.264c-1.331-1.929-3.986-3.355-7.192-3.695    c-0.482-0.047-0.973-0.082-1.475-0.082c-0.415,0-0.818,0.021-1.221,0.057c-4.716,0.407-8.378,3.143-8.378,6.458    c0,3.288,3.62,5.985,8.285,6.425C12.109,20.823,14.423,18.512,16.962,16.473z"></path>
				<path fill="none" d="M87.736,47.021c-1.111-0.067-2.172-0.23-3.168-0.509c-1.131-0.315-1.69-0.468-2.614-1.017    c-0.108-0.063-0.052-0.024-0.152-0.087l-4.483,1.129l1.144-4.022c-0.385-0.531-0.571-0.971-0.792-1.561    c-0.26-0.7-0.41-1.426-0.41-2.183c0-3.534,3.062-6.539,7.342-7.733c-0.451-0.859-0.926-1.705-1.43-2.529    c-0.279,0.686-0.599,1.388-0.977,2.126l-0.18,0.362l-0.328-0.238c-0.224-0.163-0.451-0.333-0.684-0.507    c-1.822-1.369-3.891-2.923-6.126-1.835c-1.243,0.604-2.177,2.01-2.177,3.275c0,0.193,0.115,0.409,0.238,0.631    c0.189,0.344,0.429,0.769,0.209,1.235l-1.396,2.98c-0.787,1.675-0.336,3.027,0.145,4.458c0.319,0.96,0.653,1.949,0.627,3.076    c-0.082,3.68,0.795,4.813,2.916,7.554l0.422,0.545c0.598,0.779,1.381,1.679,2.132,1.724c0.335,0.024,0.649-0.123,0.977-0.449    l0.188-0.188c0.684-0.688,0.814-0.778,1.949-0.731c0.592,0.025,0.609-0.071,0.66-0.315c0.049-0.235,0.144-0.676,0.741-0.804    c0.376-0.077,0.732-0.116,1.063-0.116c0.783,0,1.439,0.216,1.962,0.649c1.366,1.146,1.465,3.541,1.416,5.242v0.055    c-0.095,3.429-0.183,6.668-1.062,10.047c-0.16,0.611-0.535,1.416-0.928,2.265c-0.738,1.587-1.632,3.509-1.234,4.5    c1.598-2.752,2.909-5.688,3.895-8.771c0.039-0.118,0.079-0.233,0.113-0.353c0.062-0.198,0.123-0.401,0.184-0.604    c0.066-0.239,0.141-0.481,0.206-0.719c0.044-0.164,0.085-0.322,0.13-0.484c0.094-0.356,0.184-0.717,0.271-1.076    c0.012-0.057,0.022-0.105,0.039-0.163c0.104-0.446,0.199-0.901,0.293-1.353c0.009-0.049,0.017-0.099,0.026-0.146    c0.081-0.402,0.152-0.809,0.22-1.215c0.015-0.075,0.028-0.152,0.041-0.229c0.068-0.424,0.133-0.851,0.188-1.277    c0.006-0.026,0.008-0.051,0.014-0.077c0.063-0.472,0.114-0.946,0.163-1.42c0.005-0.026,0.005-0.052,0.009-0.077    c0.039-0.411,0.073-0.832,0.104-1.245c0.008-0.12,0.015-0.237,0.021-0.353c0.022-0.342,0.037-0.685,0.051-1.025    c0.005-0.124,0.009-0.246,0.015-0.37c0.015-0.446,0.022-0.896,0.022-1.345c0-0.469-0.008-0.932-0.024-1.394    c-0.004-0.13-0.013-0.258-0.017-0.387c-0.015-0.356-0.03-0.716-0.053-1.072c-0.007-0.116-0.015-0.236-0.021-0.352    c-0.033-0.464-0.071-0.928-0.12-1.392c-0.004-0.029-0.009-0.059-0.013-0.09c0-0.006,0-0.01,0-0.014    c-0.282,0.014-0.565,0.031-0.854,0.031C88.322,47.076,88.033,47.035,87.736,47.021z"></path>
				<path fill="none" d="M63.334,15.012c-0.795,0-0.795,0.431-0.795,0.572c0,0.427,0.451,0.869,0.932,1.333    c0.453,0.441,0.967,0.94,1.223,1.558c0.045,0.106,0.084,0.146,0.101,0.157c0.032-0.014,0.12-0.085,0.187-0.252    c0.059-0.141,0.207-0.649-0.236-1.241l-0.967-1.294l1.414,0.788c0.135,0.077,0.279,0.102,0.44,0.128    c0.216,0.037,0.462,0.082,0.706,0.246c-0.027-0.183-0.107-0.368-0.229-0.553C65.537,15.59,64.213,15.012,63.334,15.012z"></path>
				<path fill="none" d="M33.061,45.159l0.047,0.073c0.041,0.057,0.132,0.193,0.209,0.277c0.063-0.14,0.139-0.299,0.283-0.395    l0.069-0.035l0.364-0.141l-0.765-0.213C32.94,44.98,33.02,45.099,33.061,45.159z"></path>
				<path fill="none" d="M72.752,27.185c0.571,0,1.035-0.145,1.152-0.364c0.174-0.317-0.196-1.062-0.521-1.717    c-0.468-0.942-0.999-2.004-0.612-2.875c0.443-1.001,1.041-1.51,1.776-1.51c0.9,0,1.802,0.761,2.673,1.5    c0.684,0.58,1.393,1.178,1.875,1.178c0.088,0,0.192-0.021,0.312-0.12c-2.651-3.18-5.733-5.983-9.162-8.325    c-1.17,2.689-1.27,3.854,1.036,6.16c0.297,0.297,0.409,0.601,0.331,0.897c-0.16,0.643-1.11,0.922-2.028,1.194    c-0.323,0.096-0.767,0.23-0.86,0.307c-0.045,0.042-0.062,0.087-0.062,0.161c0.011,0.598,1.23,1.756,1.964,2.45    c0.289,0.277,0.539,0.515,0.708,0.698C71.488,26.993,72.078,27.185,72.752,27.185z"></path>
				<path fill="none" d="M37.449,46.486c-0.035,0-0.092,0-0.141,0.002c0,0.037-0.002,0.078-0.002,0.114l0.23,1.408    c0,0.193-0.055,0.445-0.12,0.738c-0.047,0.216-0.126,0.576-0.134,0.777c0.383-0.061,0.858-0.338,0.887-0.49l-0.2-1.526    C37.97,47.101,37.63,46.486,37.449,46.486z"></path>
				<path d="M89.48,47.06c0.004,0.031,0.01,0.061,0.014,0.09c0.049,0.464,0.087,0.928,0.12,1.392c0.008,0.116,0.016,0.236,0.022,0.352    c0.021,0.356,0.037,0.716,0.053,1.072c0.004,0.128,0.012,0.256,0.016,0.387c0.018,0.461,0.023,0.926,0.023,1.394    c0,0.448-0.008,0.897-0.021,1.345c-0.006,0.124-0.01,0.246-0.014,0.37c-0.016,0.343-0.028,0.685-0.051,1.024    c-0.006,0.115-0.014,0.232-0.021,0.354c-0.03,0.413-0.064,0.834-0.104,1.245c-0.004,0.026-0.004,0.051-0.01,0.077    c-0.049,0.474-0.1,0.947-0.164,1.42c-0.005,0.025-0.007,0.051-0.013,0.077c-0.056,0.428-0.118,0.854-0.188,1.278    c-0.012,0.074-0.025,0.151-0.039,0.228c-0.067,0.407-0.14,0.812-0.221,1.215c-0.011,0.05-0.02,0.099-0.025,0.146    c-0.094,0.451-0.189,0.906-0.293,1.354c-0.018,0.057-0.028,0.107-0.039,0.163c-0.09,0.358-0.18,0.72-0.272,1.076    c-0.045,0.161-0.086,0.321-0.13,0.483c-0.064,0.237-0.139,0.479-0.206,0.721c-0.062,0.203-0.12,0.404-0.183,0.604    c-0.035,0.118-0.075,0.233-0.114,0.352c-0.984,3.084-2.297,6.02-3.894,8.771c-0.397-0.992,0.496-2.913,1.233-4.5    c0.394-0.849,0.769-1.652,0.929-2.265c0.879-3.38,0.967-6.618,1.061-10.046v-0.055c0.049-1.701-0.049-4.099-1.416-5.244    c-0.521-0.434-1.18-0.648-1.963-0.648c-0.33,0-0.688,0.039-1.062,0.116c-0.599,0.128-0.691,0.567-0.74,0.804    c-0.052,0.244-0.069,0.342-0.662,0.314c-1.135-0.047-1.266,0.043-1.948,0.732l-0.188,0.189c-0.326,0.324-0.642,0.474-0.977,0.449    c-0.751-0.045-1.534-0.944-2.131-1.725l-0.424-0.545c-2.119-2.74-2.996-3.874-2.914-7.554c0.025-1.127-0.309-2.116-0.627-3.076    c-0.48-1.431-0.933-2.783-0.146-4.458l1.396-2.98c0.221-0.466-0.019-0.891-0.209-1.235c-0.121-0.222-0.237-0.438-0.237-0.631    c0-1.265,0.934-2.671,2.177-3.275c2.236-1.088,4.303,0.466,6.126,1.835c0.231,0.173,0.46,0.344,0.685,0.507l0.326,0.238    l0.18-0.362c0.379-0.739,0.697-1.44,0.978-2.126c0.504,0.824,0.979,1.67,1.431,2.529c0.229-0.065,0.459-0.116,0.695-0.171    c-0.59-1.133-1.211-2.25-1.898-3.335l-0.375-0.588l-0.014,0.031c-0.844-1.286-1.754-2.525-2.72-3.713l0.015-0.024l-0.162-0.195    c-2.83-3.442-6.144-6.441-9.845-8.916l-0.339-0.226l-0.011,0.021c-5.782-3.794-12.487-6.299-19.698-7.104l-0.002-0.004    l-0.205-0.022c-0.058-0.006-0.11-0.01-0.165-0.014C49.756,6.76,49.634,6.752,49.51,6.74c-0.254-0.022-0.513-0.047-0.771-0.069    c-0.191-0.015-0.384-0.024-0.575-0.037C47.97,6.62,47.776,6.607,47.579,6.6c-0.269-0.014-0.543-0.026-0.816-0.035    c-0.12-0.004-0.239-0.01-0.359-0.014c-0.399-0.012-0.794-0.014-1.194-0.014c-0.364,0-0.73,0.002-1.095,0.012    c-0.083,0.002-0.161,0.006-0.24,0.006c-0.307,0.01-0.612,0.021-0.919,0.039C42.907,6.596,42.86,6.598,42.808,6.6    c-7.629,0.393-14.858,2.684-21.285,6.661c0.132,0.195,0.281,0.385,0.393,0.586c5.457-3.365,11.682-5.605,18.357-6.348    c0.232-0.022,0.464-0.049,0.696-0.069c0.238-0.024,0.476-0.045,0.714-0.065c0.484-0.037,0.967-0.069,1.453-0.087    c0.14-0.008,0.28-0.012,0.425-0.018c0.548-0.021,1.099-0.033,1.65-0.033c0.382,0,0.761,0.006,1.139,0.012    c0.159,0.006,0.315,0.016,0.473,0.019c0.224,0.008,0.447,0.016,0.669,0.026c0.081,0.004,0.167,0.01,0.25,0.012    c0.668,0.041,1.331,0.091,1.99,0.159c0.352,1.162,1.477,2.146,2.482,3.025c0.218,0.189,0.425,0.372,0.62,0.551    c-0.507,0.295-1.052,0.677-1.623,1.08c-1.199,0.846-2.56,1.805-3.514,1.805c-0.7,0-1.205-0.169-1.545-0.517    c-0.686-0.708-0.648-2.083-0.612-3.414c0.009-0.293,0.017-0.584,0.017-0.865V8.748L40.19,9.212    c-0.175-0.004-0.362,0.01-0.555,0.047l0.091,0.684L40.223,9.9c0.626,0.016,1.167,0.348,1.746,1.054    c-0.171,0.132-0.352,0.285-0.543,0.441c-0.639,0.535-1.438,1.199-1.951,1.272c-0.222,0.032-0.788-0.169-1.282-0.348    c-0.763-0.269-1.627-0.576-2.319-0.519l-0.582,0.047c-2.873,0.228-4.604,0.362-6.883,2.641l-0.303,0.305l0.36,0.232    c0.468,0.301,0.757,0.964,1.007,1.55c0.301,0.694,0.584,1.349,1.186,1.424c0.531,0.065,1.097-0.35,1.892-1.398    c0.916-1.2,2.012-2.435,3.184-2.515c0.639-0.041,1.274,0.258,1.937,0.919c0.427,0.427,1.023,0.352,1.503,0.289    c0.352-0.043,0.684-0.087,0.832,0.061l3.261,3.261c0.74,0.741,0.682,1.662,0.24,2.193c-0.362,0.433-1.048,0.689-1.939,0.206    c0.112-0.193,0.195-0.403,0.281-0.606c0.124-0.305,0.24-0.594,0.421-0.777l0.307-0.307l-0.373-0.23    c-1.109-0.675-2.519-0.364-3.886-0.061c-0.729,0.161-1.418,0.315-2.033,0.315h-0.832l3.312,3.312    c-0.938,0.393-1.931,0.376-2.975,0.36c-0.214-0.004-0.429-0.008-0.647-0.008c-1.282,0-1.835,0.651-2.372,1.278    c-0.375,0.438-0.763,0.893-1.447,1.168c-1.416,0.563-2.262,1.717-3.08,2.828c-0.216,0.293-0.434,0.594-0.666,0.885    c-0.352,0.443-1.137,0.905-1.894,1.353c-0.761,0.445-1.544,0.907-2.063,1.432c-0.712,0.712-0.757,2.423-0.792,3.794    c-0.012,0.445-0.024,0.865-0.057,1.153c-0.037,0.308-0.092,0.373-0.063,0.376c-0.047,0.016-0.206,0.004-0.336-0.004    c-0.15-0.012-0.332-0.024-0.547-0.024c-0.032,0-0.087-0.004-0.105-0.026c-0.108-0.118-0.051-0.617-0.019-0.916    c0.022-0.204,0.043-0.395,0.043-0.566c0-2.142-1.746-3.408-3.386-3.518c-1.19-0.083-2.651,0.476-3.135,2.228    c-0.391-0.261-0.781-0.34-1.166-0.242c-1.02,0.26-1.632,1.756-1.961,2.962c-0.415,1.516-0.732,3.992-0.218,4.507    c1.455,1.455,2.22,1.074,3.485,0.443c0.297-0.148,0.628-0.317,1.015-0.484c0.141-0.061,0.214-0.065,0.244-0.065    c0.012,0,0.019,0,0.019,0c0.018,0.016,0.352,0.405-0.763,3.318c-0.035,0.085-0.057,0.146-0.071,0.185L15.5,45.963l0.812-0.474    c0.678-0.399,1.188-0.513,1.522-0.346c0.621,0.315,0.761,1.642,0.873,2.706c0.044,0.417,0.085,0.81,0.154,1.146    c0.037,0.197,0.071,0.376,0.102,0.537c0.307,1.642,0.519,1.696,2.376,1.696c0.497,0,0.704,0.16,0.899,0.321    c0.576,0.458,0.975,0.343,1.861-0.547c1.152-1.152,2.962-1.325,4.279-1.266c3.298,0.145,7.497,1.953,9.173,3.955    c1.144,1.363,3.322,1.906,5.241,2.385c0.657,0.162,1.271,0.318,1.803,0.492c0.688,0.227,1.125,0.899,1.632,1.684    c0.559,0.859,1.193,1.841,2.321,2.318l9.267,3.947c0.722,0.306,1.137,0.688,1.244,1.137c0.231,0.951-0.875,2.277-1.688,3.244    c-0.191,0.23-0.473,0.515-0.771,0.81c-0.72,0.72-1.535,1.536-1.787,2.295c-0.18,0.535-0.092,1.125-0.011,1.696    c0.075,0.525,0.148,1.02,0.013,1.404c-0.948,2.654-3.446,3.912-5.771,4.797c-1.508,0.574-2.175,1.762-2.82,2.912    c-0.496,0.889-0.966,1.729-1.807,2.301c-0.878,0.6-1.845,0.834-2.779,1.06c-1.493,0.362-3.04,0.734-4.181,2.582    c-0.214,0.353-0.397,0.979-0.613,1.707c-0.309,1.063-0.781,2.667-1.312,2.804c-0.167,0.045-0.373-0.115-0.513-0.259    c-2.49-2.485-3.455-4.159-4.808-7.206c-0.596-1.335-0.476-3.529-0.372-5.471c0.047-0.86,0.087-1.673,0.067-2.35    c-0.071-2.303-1.711-3.746-3.298-5.143c-0.452-0.396-0.917-0.809-1.345-1.232c-1.406-1.407-2.439-3.441-3.442-5.416    c-0.441-0.864-0.856-1.679-1.3-2.44c-0.879-1.511-0.217-2.584,0.621-3.94c0.495-0.811,1.058-1.726,1.286-2.812    c0.1-0.488,0.447-3.139-0.364-3.949c-0.434-0.438-0.773-0.586-1.048-0.586c-0.297,0-0.523,0.174-0.72,0.362    c-0.214,0.202-0.272,0.251-0.682-0.156c-1.09-1.093-1.811-1.812-2.468-3.205l-1.381-2.93c-0.261-0.551-0.861-0.431-1.221-0.36    c-0.132,0.024-0.383,0.073-0.441,0.039c-0.108-0.085-0.249-0.193-0.419-0.324c-3.412-2.59-5.141-4.231-5.141-4.881    c0-3.356,0.338-6.107,1.207-9.804c0.462-1.965,1.331-4.063,2.454-6.026c-0.279,0.018-0.547,0.053-0.832,0.053    c-0.889,0-1.75-0.083-2.582-0.224C3.273,32.501,0,41.746,0,51.745c0,24.929,20.282,45.209,45.209,45.209    c16.489,0,30.939-8.873,38.841-22.097l0.017,0.012c1.429-2.396,2.621-4.915,3.576-7.516c0.02-0.054,0.037-0.105,0.058-0.156    c0.108-0.297,0.214-0.6,0.315-0.901c0.053-0.146,0.1-0.293,0.147-0.44c0.108-0.338,0.22-0.676,0.321-1.021    c0.092-0.301,0.182-0.603,0.267-0.907c0.039-0.145,0.08-0.293,0.12-0.438c0.088-0.332,0.173-0.665,0.255-0.999    c0.024-0.102,0.054-0.211,0.077-0.312c0.216-0.914,0.404-1.841,0.564-2.779c0.012-0.065,0.021-0.127,0.032-0.196    c0.071-0.423,0.136-0.847,0.195-1.275c0.007-0.053,0.015-0.106,0.021-0.165c0.127-0.936,0.225-1.882,0.289-2.836    c0.008-0.111,0.018-0.222,0.022-0.333c0.022-0.36,0.041-0.721,0.053-1.083c0.004-0.121,0.013-0.248,0.015-0.374    c0.015-0.462,0.024-0.926,0.024-1.39c0-0.486-0.011-0.969-0.026-1.449c-0.004-0.13-0.009-0.26-0.017-0.388    c-0.013-0.389-0.035-0.777-0.06-1.17c-0.006-0.1-0.012-0.197-0.021-0.301c-0.034-0.482-0.075-0.96-0.127-1.438    c0-0.002-0.002-0.006-0.002-0.008c-0.228,0.024-0.455,0.041-0.688,0.055C89.48,47.049,89.48,47.054,89.48,47.06z M26.796,43.296    c-0.1,0.134-0.252,0.211-0.419,0.211c-0.11,0-0.218-0.033-0.293-0.087l-3.327-2.677l-0.004-0.004    c0.041-0.071,0.141-0.191,0.211-0.272c0.053-0.063,0.11-0.128,0.161-0.193c0.372,0.037,1.424,0.657,2.002,1.076l1.556,1.225    C26.915,42.74,26.963,43.066,26.796,43.296z M31.508,45.216c-0.006,0.014-0.014,0.029-0.02,0.043l-2.254-0.204    c-0.159-0.024-0.417-0.118-0.633-0.279c-0.179-0.132-0.252-0.252-0.242-0.309c0.026-0.175,0.535-0.441,0.94-0.441    c0.035,0,0.063,0.002,0.092,0.008l0.028,0.002l1.29-0.01c0.152,0.026,0.272,0.077,0.333,0.142c0.022,0.021,0.083,0.083,0.057,0.25    c-0.055,0.358,0.197,0.602,0.429,0.761C31.521,45.192,31.515,45.202,31.508,45.216z M33.669,45.08L33.6,45.115    c-0.144,0.096-0.22,0.254-0.283,0.395c-0.077-0.083-0.168-0.22-0.209-0.277l-0.047-0.073c-0.041-0.061-0.12-0.179,0.208-0.433    l0.765,0.213L33.669,45.08z M37.282,49.525c0.008-0.201,0.087-0.562,0.134-0.777c0.065-0.293,0.12-0.545,0.12-0.738l-0.23-1.408    c0-0.037,0.002-0.078,0.002-0.114c0.049-0.002,0.106-0.002,0.141-0.002c0.181,0,0.521,0.615,0.521,1.023l0.2,1.526    C38.141,49.188,37.665,49.464,37.282,49.525z M65.631,16.76c-0.162-0.026-0.307-0.051-0.441-0.128l-1.414-0.788l0.968,1.294    c0.442,0.592,0.295,1.101,0.235,1.241c-0.064,0.167-0.152,0.238-0.186,0.252c-0.018-0.01-0.055-0.051-0.1-0.157    c-0.258-0.618-0.771-1.117-1.223-1.558c-0.48-0.464-0.933-0.905-0.933-1.333c0-0.141,0-0.572,0.795-0.572    c0.879,0,2.203,0.578,2.772,1.44c0.123,0.185,0.201,0.37,0.229,0.553C66.093,16.841,65.848,16.796,65.631,16.76z M70.626,26.121    c-0.731-0.694-1.953-1.852-1.964-2.45c0-0.073,0.02-0.118,0.062-0.161c0.094-0.077,0.537-0.211,0.86-0.307    c0.918-0.272,1.868-0.551,2.028-1.194c0.078-0.297-0.034-0.6-0.331-0.897c-2.306-2.307-2.206-3.471-1.036-6.16    c3.429,2.342,6.511,5.145,9.162,8.325c-0.12,0.1-0.225,0.12-0.312,0.12c-0.482,0-1.191-0.598-1.875-1.178    c-0.871-0.738-1.771-1.5-2.673-1.5c-0.735,0-1.333,0.509-1.776,1.51c-0.387,0.871,0.146,1.933,0.612,2.875    c0.323,0.655,0.693,1.399,0.521,1.717c-0.117,0.22-0.581,0.364-1.152,0.364c-0.674,0-1.264-0.191-1.418-0.366    C71.165,26.635,70.915,26.397,70.626,26.121z"></path>
				<path d="M90.073,30.543c-0.476-0.041-0.956-0.073-1.444-0.073c-0.596,0-1.178,0.045-1.749,0.106    c-0.546,0.063-1.067,0.173-1.583,0.291c-0.236,0.055-0.468,0.105-0.695,0.171c-4.281,1.194-7.343,4.199-7.343,7.733    c0,0.757,0.15,1.483,0.41,2.183c0.22,0.59,0.407,1.029,0.792,1.561l-1.145,4.022l4.484-1.129c0.102,0.063,0.045,0.024,0.152,0.087    c0.924,0.549,1.482,0.702,2.613,1.017c0.998,0.279,2.058,0.442,3.168,0.509c0.298,0.014,0.586,0.055,0.894,0.055    c0.287,0,0.57-0.017,0.853-0.031c0.232-0.014,0.461-0.031,0.688-0.055c5.54-0.553,9.831-4.024,9.831-8.219    C100,34.552,95.66,31.068,90.073,30.543z M89.945,45.2c-0.229,0.018-0.461,0.035-0.695,0.045c-0.208,0.01-0.407,0.044-0.621,0.044    c-0.258,0-0.502-0.03-0.755-0.047c-0.937-0.046-1.835-0.171-2.671-0.393c-0.956-0.248-1.562-0.443-2.342-0.873    c-0.088-0.051-0.672-0.474-0.76-0.527l-2.682,0.788l0.73-2.433c-0.323-0.413-0.588-0.854-0.775-1.318    c-0.216-0.547-0.344-1.119-0.344-1.713c0-2.826,2.67-5.229,6.381-6.128c0.23-0.057,0.479-0.085,0.716-0.13    c0.338-0.065,0.671-0.136,1.022-0.175c0.482-0.047,0.976-0.083,1.478-0.083c0.413,0,0.817,0.024,1.222,0.059    c4.715,0.407,8.377,3.144,8.377,6.458C98.229,42.061,94.609,44.754,89.945,45.2z"></path>
				<path d="M22.333,19.109c0.258-0.7,0.409-1.426,0.409-2.183c0-1.091-0.303-2.124-0.828-3.081c-0.112-0.201-0.26-0.391-0.393-0.586    c-1.615-2.362-4.698-4.104-8.4-4.527c-0.568-0.065-1.151-0.107-1.748-0.107c-0.488,0-0.971,0.032-1.445,0.071    C4.342,9.224,0,12.707,0,16.927c0,3.929,3.762,7.222,8.791,8.081c0.832,0.14,1.693,0.224,2.582,0.224    c0.285,0,0.553-0.035,0.832-0.053c0.022-0.002,0.042-0.002,0.061-0.004c1.109-0.065,2.169-0.23,3.166-0.506    c1.131-0.315,1.691-0.468,2.617-1.015c0.105-0.065,0.051-0.027,0.152-0.09l4.482,1.129L21.54,20.67    C21.924,20.139,22.113,19.702,22.333,19.109z M20.624,18.64c-0.188,0.464-0.452,0.905-0.773,1.32l0.732,2.434l-2.686-0.788    c-0.085,0.051-0.669,0.478-0.759,0.525c-0.779,0.431-1.383,0.626-2.34,0.875c-0.415,0.112-0.846,0.195-1.29,0.26    c-0.448,0.063-0.912,0.108-1.381,0.132c-0.252,0.014-0.499,0.047-0.755,0.047c-0.452,0-0.879-0.051-1.314-0.092    c-4.665-0.439-8.285-3.137-8.285-6.425c0-3.314,3.662-6.051,8.378-6.458c0.403-0.037,0.806-0.057,1.221-0.057    c0.502,0,0.993,0.035,1.475,0.082c3.206,0.34,5.861,1.766,7.192,3.695c0.138,0.199,0.274,0.396,0.384,0.612    c0.342,0.667,0.547,1.377,0.547,2.126C20.972,17.522,20.841,18.094,20.624,18.64z"></path>
			</g>
		</g>
	</g>
	<g id="SvgjsG1186" featurekey="text1" fill="#ffffff" transform="matrix(3.871445570903608,0,0,3.871445570903608,174.62100058076706,32.973888743051006)">
		<path d="M20.098 9.179375 l4.8047 0 l0 1.6895 l-1.2891 0 l-4.2285 13.115 l-2.9883 0 l-4.0137 -12.9 l-3.7012 12.9 l-2.959 0 l-4.3164 -13.115 l-1.3086 0 l0 -1.6895 l4.8047 0 l0 1.6895 l-1.2891 0 l3.584 11.377 l3.7793 -13.066 l2.9199 0 l4.0234 13.066 l3.6523 -11.377 l-1.4746 0 l0 -1.6895 z M27.6953 19.160175 q0 0.4296875 0.0634765625 0.7861328125 t0.18066 0.67871 q0.361328125 0.9765625 1.157226563 1.469726563 t1.8018 0.49316 q0.791015625 0 1.538085938 -0.2197265625 t1.5674 -0.68848 l0.73242 1.2402 q-0.99609375 0.68359375 -2.001953125 1.015625 t-2.0898 0.33203 q-1.025390625 0 -1.899414063 -0.341796875 t-1.5039 -1.0156 t-0.98633 -1.6797 t-0.35645 -2.3438 q0 -1.083984375 0.302734375 -2.045898438 t0.90332 -1.6797 t1.4893 -1.1377 t2.0703 -0.41992 q1.142578125 0 1.909179688 0.3466796875 t1.25 0.91797 t0.73242 1.3037 t0.34668 1.4941 q0.048828125 0.37109375 0.0634765625 0.751953125 t0.014648 0.74219 l-7.2852 0 z M30.5371 15.126975 q-0.634765625 0 -1.108398438 0.1806640625 t-0.80566 0.51758 t-0.53223 0.8252 t-0.29785 1.0938 l5.2441 0 q-0.0390625 -0.56640625 -0.1806640625 -1.044921875 t-0.43457 -0.83008 t-0.75195 -0.54688 t-1.1328 -0.19531 z M37.031249375 8.789375 l3.2813 0 l0 5.918 q0.64453125 -0.498046875 1.40625 -0.791015625 t1.5723 -0.29297 q0.99609375 0 1.826171875 0.37109375 t1.4307 1.0449 t0.93262 1.6162 t0.33203 2.085 q0 1.220703125 -0.37109375 2.211914063 t-1.0303 1.7041 t-1.5674 1.0986 t-1.9922 0.38574 q-0.751953125 0 -1.411132813 -0.2197265625 t-1.1279 -0.57129 l0 0.63477 l-1.8164 0 l0 -13.516 l-1.4648 0 l0 -1.6797 z M42.812509375 15.224575 q-0.712890625 0 -1.3671875 0.29296875 t-1.1328 0.79102 l0 5.4395 q0.3125 0.322265625 0.91796875 0.5712890625 t1.5234 0.24902 q0.625 0 1.201171875 -0.234375 t1.0156 -0.70801 t0.70313 -1.1768 t0.26367 -1.6406 q0 -0.859375 -0.2490234375 -1.5234375 t-0.67383 -1.123 t-0.99121 -0.69824 t-1.2109 -0.23926 z M48.7109375 23.984375 z M54.4824375 22.304675 l1.4063 0 l0 -11.26 l-1.4063 0 l0 -1.8652 l4.6875 0 l4.6973 12.783 l4.7559 -12.783 l4.4434 0 l0 1.8652 l-1.3965 0 l0 11.26 l1.3965 0 l0 1.6797 l-4.8047 0 l0 -1.6797 l1.582 0 l0 -11.367 l-5.1758 13.047 l-1.6602 0 l-5.2441 -13.076 l0 11.396 l1.5234 0 l0 1.6797 l-4.8047 0 l0 -1.6797 z M77.158190625 19.160175 q0 0.4296875 0.0634765625 0.7861328125 t0.18066 0.67871 q0.361328125 0.9765625 1.157226563 1.469726563 t1.8018 0.49316 q0.791015625 0 1.538085938 -0.2197265625 t1.5674 -0.68848 l0.73242 1.2402 q-0.99609375 0.68359375 -2.001953125 1.015625 t-2.0898 0.33203 q-1.025390625 0 -1.899414063 -0.341796875 t-1.5039 -1.0156 t-0.98633 -1.6797 t-0.35645 -2.3438 q0 -1.083984375 0.302734375 -2.045898438 t0.90332 -1.6797 t1.4893 -1.1377 t2.0703 -0.41992 q1.142578125 0 1.909179688 0.3466796875 t1.25 0.91797 t0.73242 1.3037 t0.34668 1.4941 q0.048828125 0.37109375 0.0634765625 0.751953125 t0.014648 0.74219 l-7.2852 0 z M79.999990625 15.126975 q-0.634765625 0 -1.108398438 0.1806640625 t-0.80566 0.51758 t-0.53223 0.8252 t-0.29785 1.0938 l5.2441 0 q-0.0390625 -0.56640625 -0.1806640625 -1.044921875 t-0.43457 -0.83008 t-0.75195 -0.54688 t-1.1328 -0.19531 z M92.8809 8.789375 l3.1934 0 l0 13.516 l1.4844 0 l0 1.6797 l-3.3008 0 l0 -0.83008 q-0.48828125 0.498046875 -1.1328125 0.7763671875 t-1.4648 0.27832 q-1.025390625 0 -1.909179688 -0.3564453125 t-1.5332 -1.0449 t-1.0156 -1.6895 t-0.36621 -2.29 q0 -1.171875 0.3515625 -2.133789063 t0.99609 -1.6406 t1.5527 -1.0547 t2.0215 -0.37598 q0.732421875 0 1.337890625 0.1611328125 t1.1621 0.56152 l0 -3.877 l-1.377 0 l0 -1.6797 z M91.8945 22.626975 q0.810546875 0 1.357421875 -0.2392578125 t1.0059 -0.71777 l0 -5.6641 q-0.48828125 -0.41015625 -1.123046875 -0.595703125 t-1.2988 -0.18555 q-0.64453125 0 -1.2109375 0.2392578125 t-0.99121 0.69824 t-0.66895 1.123 t-0.24414 1.5234 q0 0.9375 0.234375 1.650390625 t0.6543 1.1963 t1.0059 0.72754 t1.2793 0.24414 z M99.2187525 13.867375 l3.3008 0 l0 8.4375 l1.5234 0 l0 1.6797 l-4.8047 0 l0 -1.6797 l1.4453 0 l0 -6.7578 l-1.4648 0 l0 -1.6797 z M100.3418125 10.283375 q0 -0.25390625 0.1025390625 -0.4833984375 t0.27344 -0.40039 t0.40527 -0.27344 t0.49805 -0.10254 q0.25390625 0 0.4833984375 0.1025390625 t0.40039 0.27344 t0.27344 0.40039 t0.10254 0.4834 q0 0.263671875 -0.1025390625 0.498046875 t-0.27344 0.41504 t-0.40039 0.2832 t-0.4834 0.10254 q-0.263671875 0 -0.498046875 -0.1025390625 t-0.40527 -0.2832 t-0.27344 -0.41504 t-0.10254 -0.49805 z M111.806628125 13.867375 l3.2617 0 l0 8.4375 l1.123 0 l0 1.6797 l-2.9492 0 l0 -0.9375 q-0.68359375 0.52734375 -1.489257813 0.8203125 t-1.7236 0.29297 q-0.76171875 0 -1.381835938 -0.2197265625 t-1.0547 -0.68359 t-0.66895 -1.1768 t-0.23438 -1.6992 l0 -4.834 l-1.3672 0 l0 -1.6797 l3.2617 0 l0 6.2988 q0 1.162109375 0.537109375 1.7578125 t1.543 0.5957 q0.595703125 0 1.254882813 -0.21484375 t1.2451 -0.5957 l0 -6.1621 l-1.3574 0 l0 -1.6797 z M118.896481875 13.867375 l3.2227 0 l0 1.1816 l0.019531 0 q0.33203125 -0.283203125 0.6982421875 -0.5322265625 t0.7666 -0.43457 t0.83496 -0.29297 t0.90332 -0.10742 q1.09375 0 1.884765625 0.4052734375 t1.2207 1.2646 q0.37109375 -0.33203125 0.78125 -0.6396484375 t0.85449 -0.53223 t0.93262 -0.36133 t1.0156 -0.13672 q0.8203125 0 1.474609375 0.224609375 t1.1133 0.68359 t0.69824 1.1768 t0.23926 1.6943 l0 4.8438 l1.4063 0 l0 1.6797 l-4.7266 0 l0 -1.6797 l1.4258 0 l0 -4.6191 q0 -1.162109375 -0.5859375 -1.762695313 t-1.6895 -0.60059 q-0.654296875 0 -1.337890625 0.3125 t-1.1719 0.79102 l0 5.8789 l1.3965 0 l0 1.6797 l-4.7168 0 l0 -1.6797 l1.4258 0 l0 -4.6191 q0 -1.162109375 -0.5908203125 -1.762695313 t-1.6943 -0.60059 q-0.634765625 0 -1.279296875 0.302734375 t-1.2207 0.75195 l0 5.9277 l1.4258 0 l0 1.6797 l-4.7266 0 l0 -1.6797 l1.4063 0 l0 -6.7578 l-1.4063 0 l0 -1.6797 z M144.565453125 15.883775 q-0.1904296875 -0.2880859375 -0.4931640625 -0.46875 t-0.67383 -0.26367 t-0.72266 -0.083008 q-0.390625 0 -0.7177734375 0.087890625 t-0.56152 0.25391 t-0.36621 0.40527 t-0.13184 0.53223 q0 0.5078125 0.3076171875 0.8056640625 t1.0303 0.55176 l1.9434 0.68359 q1.25 0.419921875 1.826171875 1.142578125 t0.57617 1.7285 q0 0.673828125 -0.2685546875 1.235351563 t-0.76172 0.95703 t-1.1865 0.61523 t-1.543 0.21973 q-1.181640625 0 -1.923828125 -0.380859375 t-1.1426 -1.0059 l-1.0156 0 l0 -1.6797 l2.0215 0 q0 0.419921875 0.1806640625 0.7177734375 t0.47852 0.4834 t0.67383 0.27344 t0.7666 0.087891 q0.380859375 0 0.732421875 -0.0927734375 t0.62012 -0.27344 t0.4248 -0.43457 t0.15625 -0.57617 q0 -0.48828125 -0.3173828125 -0.830078125 t-1.0791 -0.61523 l-1.9336 -0.72266 q-1.181640625 -0.419921875 -1.752929688 -1.069335938 t-0.57129 -1.626 q0 -0.64453125 0.2392578125 -1.19140625 t0.69336 -0.94238 t1.1084 -0.62012 t1.4941 -0.22461 q1.083984375 0 1.81640625 0.302734375 t1.3184 1.0352 l0.94727 0 l0 1.6797 l-2.002 0 q0 -0.41015625 -0.1904296875 -0.6982421875 z"></path>
	</g>
</svg>